<svg width="212" height="80" viewBox="0 0 212 80" fill="none" xmlns="http://www.w3.org/2000/svg">
<path d="M18 54L2 54L2 38L18 38L18 54Z" fill="#E3EDFF"/>
<path d="M18 38L2 38C2 29.1634 9.16344 22 18 22L18 38Z" fill="#4787FF"/>
<path d="M32 46C27.5817 46 24 49.5817 24 54H18V22H32V46Z" fill="#C6DAFF"/>
<circle cx="32" cy="54" r="6" fill="#203D73"/>
<path d="M50.8273 25.7188H61.4523C63.5617 25.7188 65.3651 26.1159 66.8625 26.9102C68.3599 27.7044 69.4927 28.8112 70.2609 30.2305C71.0292 31.6367 71.4133 33.2578 71.4133 35.0938C71.4133 36.9167 71.0227 38.5378 70.2414 39.957C69.4732 41.3633 68.3339 42.4635 66.8234 43.2578C65.313 44.0391 63.4966 44.4297 61.3742 44.4297H55.9055V54H50.8273V25.7188ZM60.6711 40.25C62.5201 40.25 63.9068 39.7878 64.8313 38.8633C65.7557 37.9258 66.218 36.6693 66.218 35.0938C66.218 33.5052 65.7557 32.2552 64.8313 31.3438C63.9068 30.4323 62.5201 29.9766 60.6711 29.9766H55.9055V40.25H60.6711ZM73.1133 48.0234C73.1133 45.8359 73.849 44.2604 75.3203 43.2969C76.8047 42.3203 78.6992 41.7604 81.0039 41.6172C83.2565 41.4609 85.0664 41.3568 86.4336 41.3047V39.625C86.4336 38.5703 86.1016 37.7565 85.4375 37.1836C84.7734 36.5977 83.8294 36.3047 82.6055 36.3047C81.5247 36.3047 80.6393 36.5326 79.9492 36.9883C79.2591 37.444 78.8164 38.0625 78.6211 38.8438H73.8164C73.9336 37.6328 74.3633 36.5521 75.1055 35.6016C75.8477 34.638 76.8698 33.8828 78.1719 33.3359C79.474 32.7891 80.9909 32.5156 82.7227 32.5156C84.207 32.5156 85.6003 32.75 86.9023 33.2188C88.2175 33.6745 89.2917 34.4492 90.125 35.543C90.9714 36.6237 91.3945 38.0495 91.3945 39.8203V54H86.6289V51.0703H86.4727C85.9518 52.0599 85.1706 52.8672 84.1289 53.4922C83.0872 54.1172 81.7852 54.4297 80.2227 54.4297C78.8555 54.4297 77.6315 54.1823 76.5508 53.6875C75.4831 53.1927 74.6432 52.4635 74.0313 51.5C73.4193 50.5365 73.1133 49.3776 73.1133 48.0234ZM77.918 47.9844C77.918 48.8828 78.2435 49.5729 78.8945 50.0547C79.5456 50.5234 80.418 50.7578 81.5117 50.7578C82.4883 50.7578 83.3542 50.5625 84.1094 50.1719C84.8646 49.7812 85.444 49.2539 85.8477 48.5898C86.2643 47.9128 86.4727 47.1771 86.4727 46.3828L86.4531 44.6445L81.7852 44.9375C80.5612 45.0417 79.6107 45.3477 78.9336 45.8555C78.2565 46.3633 77.918 47.0729 77.918 47.9844ZM95.282 32.7891H100.165V36.2656H100.477C101.011 35.224 101.747 34.3385 102.684 33.6094C103.622 32.8802 104.917 32.5156 106.571 32.5156C108.225 32.5156 109.709 32.9388 111.024 33.7852C112.352 34.6315 113.401 35.875 114.169 37.5156C114.937 39.1562 115.321 41.1224 115.321 43.4141C115.321 45.6927 114.943 47.6589 114.188 49.3125C113.433 50.9661 112.391 52.2292 111.063 53.1016C109.748 53.9609 108.251 54.3906 106.571 54.3906C103.759 54.3906 101.727 53.1406 100.477 50.6406H100.282V61.9688H95.282V32.7891ZM100.165 43.375C100.165 44.7552 100.36 45.9661 100.751 47.0078C101.141 48.0495 101.714 48.8568 102.47 49.4297C103.225 50.0026 104.136 50.2891 105.204 50.2891C106.272 50.2891 107.183 49.9961 107.938 49.4102C108.693 48.8242 109.266 48.0104 109.657 46.9688C110.048 45.9271 110.243 44.7292 110.243 43.375C110.243 42.0469 110.048 40.8685 109.657 39.8398C109.279 38.8112 108.713 38.0104 107.958 37.4375C107.203 36.8646 106.285 36.5781 105.204 36.5781C104.136 36.5781 103.225 36.8581 102.47 37.418C101.714 37.9779 101.141 38.7721 100.751 39.8008C100.36 40.8164 100.165 42.0078 100.165 43.375ZM127.841 54.4297C125.732 54.4297 123.896 53.987 122.334 53.1016C120.784 52.2031 119.593 50.9336 118.759 49.293C117.939 47.6523 117.529 45.7318 117.529 43.5312C117.529 41.3568 117.946 39.4427 118.779 37.7891C119.612 36.1224 120.784 34.8268 122.295 33.9023C123.818 32.9779 125.576 32.5156 127.568 32.5156C129.365 32.5156 130.992 32.8997 132.451 33.668C133.922 34.4362 135.088 35.6276 135.947 37.2422C136.819 38.8438 137.255 40.8359 137.255 43.2188V44.7812H122.451C122.464 45.9661 122.698 46.9948 123.154 47.8672C123.61 48.7266 124.241 49.3841 125.048 49.8398C125.856 50.2956 126.8 50.5234 127.88 50.5234C128.935 50.5234 129.834 50.3216 130.576 49.918C131.318 49.5143 131.852 48.987 132.177 48.3359H137.06C136.761 49.5599 136.194 50.6341 135.361 51.5586C134.528 52.4701 133.466 53.1797 132.177 53.6875C130.901 54.1823 129.456 54.4297 127.841 54.4297ZM132.49 41.3828C132.477 40.4193 132.268 39.5599 131.865 38.8047C131.461 38.0495 130.895 37.457 130.166 37.0273C129.436 36.5977 128.597 36.3828 127.646 36.3828C126.67 36.3828 125.797 36.6107 125.029 37.0664C124.274 37.5091 123.675 38.1146 123.232 38.8828C122.789 39.638 122.535 40.4714 122.47 41.3828H132.49ZM140.323 32.7891H145.166V36.3047H145.401C145.765 35.1068 146.423 34.1693 147.373 33.4922C148.324 32.8151 149.411 32.4766 150.635 32.4766C151.364 32.4766 151.963 32.5156 152.432 32.5938V37.2031C152.211 37.125 151.872 37.0534 151.416 36.9883C150.961 36.9232 150.531 36.8906 150.127 36.8906C149.216 36.8906 148.396 37.0859 147.666 37.4766C146.937 37.8672 146.364 38.4141 145.948 39.1172C145.531 39.8203 145.323 40.6146 145.323 41.5V54H140.323V32.7891ZM161.788 54.3906C160.109 54.3906 158.605 53.9609 157.277 53.1016C155.961 52.2292 154.926 50.9661 154.171 49.3125C153.416 47.6589 153.038 45.6927 153.038 43.4141C153.038 41.1224 153.422 39.1562 154.191 37.5156C154.959 35.875 156.007 34.6315 157.335 33.7852C158.663 32.9388 160.161 32.5156 161.827 32.5156C164.64 32.5156 166.658 33.7656 167.882 36.2656H168.077V25.7188H173.038V54H168.155V50.6406H167.882C166.632 53.1406 164.601 54.3906 161.788 54.3906ZM163.155 50.2891C164.21 50.2891 165.115 50.0026 165.87 49.4297C166.626 48.8568 167.198 48.0495 167.589 47.0078C167.993 45.9661 168.195 44.7552 168.195 43.375C168.195 42.0078 167.999 40.8164 167.609 39.8008C167.218 38.7721 166.645 37.9779 165.89 37.418C165.135 36.8581 164.223 36.5781 163.155 36.5781C162.075 36.5781 161.157 36.8646 160.402 37.4375C159.646 38.0104 159.073 38.8112 158.683 39.8398C158.305 40.8685 158.116 42.0469 158.116 43.375C158.116 44.7292 158.312 45.9271 158.702 46.9688C159.093 48.0104 159.666 48.8242 160.421 49.4102C161.176 49.9961 162.088 50.2891 163.155 50.2891ZM186.535 54.4297C184.504 54.4297 182.72 53.974 181.184 53.0625C179.647 52.151 178.462 50.875 177.629 49.2344C176.796 47.5807 176.379 45.6667 176.379 43.4922C176.379 41.3047 176.796 39.3841 177.629 37.7305C178.462 36.0768 179.647 34.7943 181.184 33.8828C182.72 32.9714 184.504 32.5156 186.535 32.5156C188.579 32.5156 190.37 32.9714 191.906 33.8828C193.443 34.7943 194.621 36.0768 195.441 37.7305C196.275 39.3841 196.691 41.3047 196.691 43.4922C196.691 45.6667 196.275 47.5807 195.441 49.2344C194.608 50.888 193.423 52.1706 191.887 53.082C190.363 53.9805 188.579 54.4297 186.535 54.4297ZM186.574 50.4453C187.668 50.4453 188.592 50.1393 189.348 49.5273C190.116 48.9154 190.689 48.082 191.066 47.0273C191.457 45.9727 191.652 44.7812 191.652 43.4531C191.652 42.138 191.457 40.9531 191.066 39.8984C190.689 38.8307 190.116 37.9909 189.348 37.3789C188.592 36.7669 187.668 36.4609 186.574 36.4609C185.454 36.4609 184.504 36.7669 183.723 37.3789C182.954 37.9909 182.375 38.8242 181.984 39.8789C181.607 40.9336 181.418 42.125 181.418 43.4531C181.418 44.7812 181.607 45.9727 181.984 47.0273C182.375 48.082 182.954 48.9154 183.723 49.5273C184.504 50.1393 185.454 50.4453 186.574 50.4453ZM210.345 36.6172H206.165V47.6328C206.165 48.5703 206.36 49.2148 206.751 49.5664C207.154 49.918 207.714 50.0938 208.43 50.0938C209.055 50.0938 209.785 50.0677 210.618 50.0156V54.0781C209.967 54.2083 209.029 54.2734 207.805 54.2734C206.516 54.2734 205.371 54.0651 204.368 53.6484C203.378 53.2188 202.597 52.5677 202.024 51.6953C201.464 50.8229 201.191 49.7422 201.204 48.4531V36.6172H198.157V32.7891H201.204V27.7109H206.165V32.7891H210.345V36.6172Z" fill="black"/>
</svg>
