<svg width="314" height="110" viewBox="0 0 314 110" fill="none" xmlns="http://www.w3.org/2000/svg">
<path d="M27 76L3 76L3 52L27 52L27 76Z" fill="#E3EDFF"/>
<path d="M27 52L3 52C3 38.7452 13.7452 28 27 28L27 52Z" fill="#4787FF"/>
<path d="M48 64C41.3726 64 36 69.3726 36 76H27V28H48V64Z" fill="#C6DAFF"/>
<circle cx="48" cy="76" r="9" fill="#203D73"/>
<path d="M72.241 76V33.5781H88.1785C97.9051 33.5781 103.12 39.4961 103.12 47.6406C103.12 55.7852 97.8465 61.6445 88.0613 61.6445H79.8582V76H72.241ZM79.8582 55.375H87.0066C92.7488 55.375 95.327 52.1523 95.327 47.6406C95.327 43.0703 92.7488 39.9648 87.0066 39.9648H79.8582V55.375ZM105.67 67.0352C105.67 59.8867 111.588 57.7773 117.506 57.4258C119.703 57.2793 124.273 57.0156 125.65 56.957V54.4375C125.65 51.2734 123.6 49.457 119.908 49.457C116.568 49.457 114.518 50.9805 113.932 53.2656H106.725C107.252 47.875 112.115 43.7734 120.084 43.7734C126.119 43.7734 133.092 46.2344 133.092 54.7305V76H125.943V71.6055H125.709C124.303 74.3008 121.314 76.6445 116.334 76.6445C110.24 76.6445 105.67 73.3047 105.67 67.0352ZM112.877 66.9766C112.877 69.7305 115.104 71.1367 118.268 71.1367C122.779 71.1367 125.709 68.1484 125.709 64.5742V61.9375L118.678 62.4062C115.104 62.6992 112.877 64.1641 112.877 66.9766ZM138.923 87.9531V44.1836H146.247V49.3984H146.716C147.888 47.1133 150.232 43.7734 155.857 43.7734C163.181 43.7734 168.982 49.5156 168.982 60.1211C168.982 70.6094 163.357 76.5859 155.857 76.5859C150.349 76.5859 147.888 73.3047 146.716 70.9609H146.423V87.9531H138.923ZM146.247 60.0625C146.247 66.2734 148.943 70.4336 153.806 70.4336C158.728 70.4336 161.364 66.0977 161.364 60.0625C161.364 54.1445 158.786 49.8672 153.806 49.8672C148.943 49.8672 146.247 53.9102 146.247 60.0625ZM187.762 76.6445C178.153 76.6445 172.293 70.2578 172.293 60.2969C172.293 50.4531 178.27 43.7734 187.352 43.7734C195.145 43.7734 201.883 48.6367 201.883 59.8281V62.1719H179.676C179.764 67.5918 182.957 70.7852 187.821 70.7852C191.102 70.7852 193.329 69.3789 194.266 67.5039H201.59C200.243 73.0117 195.145 76.6445 187.762 76.6445ZM179.735 57.0742H194.735C194.676 52.7383 191.805 49.5742 187.469 49.5742C182.957 49.5742 179.969 53.002 179.735 57.0742ZM206.484 76V44.1836H213.75V49.457H214.101C215.214 45.8242 218.32 43.7148 221.953 43.7148C222.773 43.7148 223.945 43.7734 224.648 43.8906V50.8047C224.004 50.5703 222.421 50.3359 221.191 50.3359C217.031 50.3359 213.984 53.207 213.984 57.25V76H206.484ZM238.682 76.5859C231.182 76.5859 225.557 70.6094 225.557 60.1211C225.557 49.5156 231.358 43.7734 238.741 43.7734C244.366 43.7734 246.71 47.1133 247.823 49.3984H248.116V33.5781H255.557V76H248.233V70.9609H247.823C246.651 73.3047 244.19 76.5859 238.682 76.5859ZM240.733 70.4336C245.538 70.4336 248.292 66.2734 248.292 60.0625C248.292 53.9102 245.596 49.8672 240.733 49.8672C235.753 49.8672 233.175 54.1445 233.175 60.0625C233.175 66.0977 235.811 70.4336 240.733 70.4336ZM275.803 76.6445C266.545 76.6445 260.568 70.082 260.568 60.2383C260.568 50.3359 266.545 43.7734 275.803 43.7734C285.119 43.7734 291.037 50.3359 291.037 60.2383C291.037 70.082 285.119 76.6445 275.803 76.6445ZM275.861 70.668C280.959 70.668 283.479 66.0391 283.479 60.1797C283.479 54.3789 280.959 49.6914 275.861 49.6914C270.646 49.6914 268.127 54.3789 268.127 60.1797C268.127 66.0391 270.646 70.668 275.861 70.668ZM311.517 44.1836V49.9258H305.247V66.4492C305.247 69.4961 306.771 70.1406 308.646 70.1406C309.525 70.1406 310.989 70.082 311.927 70.0234V76.1172C311.048 76.293 309.583 76.4102 307.708 76.4102C302.083 76.4102 297.747 73.6562 297.806 67.6797V49.9258H293.236V44.1836H297.806V36.5664H305.247V44.1836H311.517Z" fill="black"/>
</svg>
