<svg width="106" height="40" viewBox="0 0 106 40" fill="none" xmlns="http://www.w3.org/2000/svg">
<path d="M9 27L1 27L1 19L9 19L9 27Z" fill="#E3EDFF"/>
<path d="M9 19L1 19C1 14.5817 4.58172 11 9 11L9 19Z" fill="#4787FF"/>
<path d="M16 23C13.7909 23 12 24.7909 12 27H9V11H16V23Z" fill="#C6DAFF"/>
<circle cx="16" cy="27" r="3" fill="#203D73"/>
<path d="M25.4137 27V12.8594H30.7262C33.9684 12.8594 35.7066 14.832 35.7066 17.5469C35.7066 20.2617 33.9488 22.2148 30.6871 22.2148H27.9527V27H25.4137ZM27.9527 20.125H30.3355C32.2496 20.125 33.109 19.0508 33.109 17.5469C33.109 16.0234 32.2496 14.9883 30.3355 14.9883H27.9527V20.125ZM36.5566 24.0117C36.5566 21.6289 38.5293 20.9258 40.502 20.8086C41.2344 20.7598 42.7578 20.6719 43.2168 20.6523V19.8125C43.2168 18.7578 42.5332 18.1523 41.3027 18.1523C40.1895 18.1523 39.5059 18.6602 39.3105 19.4219H36.9082C37.084 17.625 38.7051 16.2578 41.3613 16.2578C43.373 16.2578 45.6973 17.0781 45.6973 19.9102V27H43.3145V25.5352H43.2363C42.7676 26.4336 41.7715 27.2148 40.1113 27.2148C38.0801 27.2148 36.5566 26.1016 36.5566 24.0117ZM38.959 23.9922C38.959 24.9102 39.7012 25.3789 40.7559 25.3789C42.2598 25.3789 43.2363 24.3828 43.2363 23.1914V22.3125L40.8926 22.4688C39.7012 22.5664 38.959 23.0547 38.959 23.9922ZM47.641 30.9844V16.3945H50.0824V18.1328H50.2387C50.6293 17.3711 51.4105 16.2578 53.2855 16.2578C55.727 16.2578 57.6605 18.1719 57.6605 21.707C57.6605 25.2031 55.7855 27.1953 53.2855 27.1953C51.4496 27.1953 50.6293 26.1016 50.2387 25.3203H50.141V30.9844H47.641ZM50.0824 21.6875C50.0824 23.7578 50.9809 25.1445 52.602 25.1445C54.2426 25.1445 55.1215 23.6992 55.1215 21.6875C55.1215 19.7148 54.2621 18.2891 52.602 18.2891C50.9809 18.2891 50.0824 19.6367 50.0824 21.6875ZM63.9207 27.2148C60.7176 27.2148 58.7645 25.0859 58.7645 21.7656C58.7645 18.4844 60.7566 16.2578 63.784 16.2578C66.3816 16.2578 68.6277 17.8789 68.6277 21.6094V22.3906H61.2254C61.2547 24.1973 62.3191 25.2617 63.9402 25.2617C65.034 25.2617 65.7762 24.793 66.0887 24.168H68.5301C68.0809 26.0039 66.3816 27.2148 63.9207 27.2148ZM61.2449 20.6914H66.2449C66.2254 19.2461 65.2684 18.1914 63.823 18.1914C62.3191 18.1914 61.323 19.334 61.2449 20.6914ZM70.1613 27V16.3945H72.5832V18.1523H72.7004C73.0715 16.9414 74.1066 16.2383 75.3176 16.2383C75.591 16.2383 75.9816 16.2578 76.216 16.2969V18.6016C76.0012 18.5234 75.4738 18.4453 75.0637 18.4453C73.677 18.4453 72.6613 19.4023 72.6613 20.75V27H70.1613ZM80.8941 27.1953C78.3941 27.1953 76.5191 25.2031 76.5191 21.707C76.5191 18.1719 78.4527 16.2578 80.9137 16.2578C82.7887 16.2578 83.5699 17.3711 83.941 18.1328H84.0387V12.8594H86.5191V27H84.0777V25.3203H83.941C83.5504 26.1016 82.7301 27.1953 80.8941 27.1953ZM81.5777 25.1445C83.1793 25.1445 84.0973 23.7578 84.0973 21.6875C84.0973 19.6367 83.1988 18.2891 81.5777 18.2891C79.9176 18.2891 79.0582 19.7148 79.0582 21.6875C79.0582 23.6992 79.9371 25.1445 81.5777 25.1445ZM93.2676 27.2148C90.1816 27.2148 88.1895 25.0273 88.1895 21.7461C88.1895 18.4453 90.1816 16.2578 93.2676 16.2578C96.373 16.2578 98.3457 18.4453 98.3457 21.7461C98.3457 25.0273 96.373 27.2148 93.2676 27.2148ZM93.2871 25.2227C94.9863 25.2227 95.8262 23.6797 95.8262 21.7266C95.8262 19.793 94.9863 18.2305 93.2871 18.2305C91.5488 18.2305 90.709 19.793 90.709 21.7266C90.709 23.6797 91.5488 25.2227 93.2871 25.2227ZM105.172 16.3945V18.3086H103.082V23.8164C103.082 24.832 103.59 25.0469 104.215 25.0469C104.508 25.0469 104.996 25.0273 105.309 25.0078V27.0391C105.016 27.0977 104.528 27.1367 103.903 27.1367C102.028 27.1367 100.582 26.2188 100.602 24.2266V18.3086H99.0785V16.3945H100.602V13.8555H103.082V16.3945H105.172Z" fill="black"/>
</svg>
