<svg width="27" height="32" viewBox="0 0 27 32" fill="none" xmlns="http://www.w3.org/2000/svg">
<path d="M5.19231 17.0667H4.15385V14.9333H5.19231C5.46772 14.9333 5.73186 15.0457 5.92661 15.2458C6.12136 15.4458 6.23077 15.7171 6.23077 16C6.23077 16.2829 6.12136 16.5542 5.92661 16.7542C5.73186 16.9543 5.46772 17.0667 5.19231 17.0667ZM12.4615 21.3333V14.9333H13.5C13.7754 14.9333 14.0396 15.0457 14.2343 15.2458C14.4291 15.4458 14.5385 15.7171 14.5385 16V20.2667C14.5385 20.5496 14.4291 20.8209 14.2343 21.0209C14.0396 21.221 13.7754 21.3333 13.5 21.3333H12.4615Z" fill="#EA4236"/>
<path fill-rule="evenodd" clip-rule="evenodd" d="M0 3.2C0 2.35131 0.328227 1.53737 0.912475 0.937258C1.49672 0.337142 2.28913 0 3.11538 0H20.1607L27 7.02507V28.8C27 29.6487 26.6718 30.4626 26.0875 31.0627C25.5033 31.6629 24.7109 32 23.8846 32H3.11538C2.28913 32 1.49672 31.6629 0.912475 31.0627C0.328227 30.4626 0 29.6487 0 28.8V3.2ZM5.19231 12.8H2.07692V23.4667H4.15385V19.2H5.19231C6.01856 19.2 6.81097 18.8629 7.39522 18.2627C7.97947 17.6626 8.30769 16.8487 8.30769 16C8.30769 15.1513 7.97947 14.3374 7.39522 13.7373C6.81097 13.1371 6.01856 12.8 5.19231 12.8ZM13.5 12.8H10.3846V23.4667H13.5C14.3263 23.4667 15.1187 23.1295 15.7029 22.5294C16.2872 21.9293 16.6154 21.1154 16.6154 20.2667V16C16.6154 15.1513 16.2872 14.3374 15.7029 13.7373C15.1187 13.1371 14.3263 12.8 13.5 12.8ZM18.6923 23.4667V12.8H24.9231V14.9333H20.7692V17.0667H22.8462V19.2H20.7692V23.4667H18.6923Z" fill="#EA4236"/>
</svg>
