<svg width="23" height="26" viewBox="0 0 23 26" fill="none" xmlns="http://www.w3.org/2000/svg">
<path d="M4.32692 13.8462H3.46154V12.1154H4.32692C4.55644 12.1154 4.77655 12.2066 4.93884 12.3688C5.10113 12.5311 5.19231 12.7513 5.19231 12.9808C5.19231 13.2103 5.10113 13.4304 4.93884 13.5927C4.77655 13.755 4.55644 13.8462 4.32692 13.8462ZM10.3846 17.3077V12.1154H11.25C11.4795 12.1154 11.6996 12.2066 11.8619 12.3688C12.0242 12.5311 12.1154 12.7513 12.1154 12.9808V16.4423C12.1154 16.6718 12.0242 16.8919 11.8619 17.0542C11.6996 17.2165 11.4795 17.3077 11.25 17.3077H10.3846Z" fill="#EA4236"/>
<path fill-rule="evenodd" clip-rule="evenodd" d="M0 2.59615C0 1.90761 0.273523 1.24727 0.760396 0.760396C1.24727 0.273523 1.90761 0 2.59615 0H16.8006L22.5 5.69942V23.3654C22.5 24.0539 22.2265 24.7143 21.7396 25.2011C21.2527 25.688 20.5924 25.9615 19.9038 25.9615H2.59615C1.90761 25.9615 1.24727 25.688 0.760396 25.2011C0.273523 24.7143 0 24.0539 0 23.3654V2.59615ZM4.32692 10.3846H1.73077V19.0385H3.46154V15.5769H4.32692C5.01547 15.5769 5.67581 15.3034 6.16268 14.8165C6.64955 14.3297 6.92308 13.6693 6.92308 12.9808C6.92308 12.2922 6.64955 11.6319 6.16268 11.145C5.67581 10.6581 5.01547 10.3846 4.32692 10.3846ZM11.25 10.3846H8.65385V19.0385H11.25C11.9385 19.0385 12.5989 18.7649 13.0858 18.2781C13.5726 17.7912 13.8462 17.1308 13.8462 16.4423V12.9808C13.8462 12.2922 13.5726 11.6319 13.0858 11.145C12.5989 10.6581 11.9385 10.3846 11.25 10.3846ZM15.5769 19.0385V10.3846H20.7692V12.1154H17.3077V13.8462H19.0385V15.5769H17.3077V19.0385H15.5769Z" fill="#EA4236"/>
</svg>
