<svg width="16" height="19" viewBox="0 0 16 19" fill="none" xmlns="http://www.w3.org/2000/svg">
<path d="M3.02885 9.69231H2.42308V8.48077H3.02885C3.18951 8.48077 3.34359 8.54459 3.45719 8.6582C3.57079 8.7718 3.63462 8.92588 3.63462 9.08654C3.63462 9.2472 3.57079 9.40128 3.45719 9.51488C3.34359 9.62849 3.18951 9.69231 3.02885 9.69231ZM7.26923 12.1154V8.48077H7.875C8.03566 8.48077 8.18974 8.54459 8.30334 8.6582C8.41695 8.7718 8.48077 8.92588 8.48077 9.08654V11.5096C8.48077 11.6703 8.41695 11.8244 8.30334 11.938C8.18974 12.0516 8.03566 12.1154 7.875 12.1154H7.26923Z" fill="#EA4236"/>
<path fill-rule="evenodd" clip-rule="evenodd" d="M0 1.81731C0 1.33533 0.191466 0.873089 0.532277 0.532277C0.873088 0.191466 1.33533 0 1.81731 0H11.7604L15.75 3.9896V16.3558C15.75 16.8378 15.5585 17.3 15.2177 17.6408C14.8769 17.9816 14.4147 18.1731 13.9327 18.1731H1.81731C1.33533 18.1731 0.873088 17.9816 0.532277 17.6408C0.191466 17.3 0 16.8378 0 16.3558V1.81731ZM3.02885 7.26923H1.21154V13.3269H2.42308V10.9038H3.02885C3.51083 10.9038 3.97307 10.7124 4.31388 10.3716C4.65469 10.0308 4.84615 9.56852 4.84615 9.08654C4.84615 8.60456 4.65469 8.14232 4.31388 7.80151C3.97307 7.4607 3.51083 7.26923 3.02885 7.26923ZM7.875 7.26923H6.05769V13.3269H7.875C8.35698 13.3269 8.81922 13.1355 9.16003 12.7946C9.50084 12.4538 9.69231 11.9916 9.69231 11.5096V9.08654C9.69231 8.60456 9.50084 8.14232 9.16003 7.80151C8.81922 7.4607 8.35698 7.26923 7.875 7.26923ZM10.9038 13.3269V7.26923H14.5385V8.48077H12.1154V9.69231H13.3269V10.9038H12.1154V13.3269H10.9038Z" fill="#EA4236"/>
</svg>
