<svg width="48" height="48" viewBox="0 0 48 48" fill="none" xmlns="http://www.w3.org/2000/svg">
<path d="M12 40.0001C10.9 40.0001 9.95867 39.6088 9.176 38.8261C8.39333 38.0435 8.00133 37.1015 8 36.0001V32.0001C8 31.4335 8.192 30.9588 8.576 30.5761C8.96 30.1935 9.43467 30.0015 10 30.0001C10.5653 29.9988 11.0407 30.1908 11.426 30.5761C11.8113 30.9615 12.0027 31.4361 12 32.0001V36.0001H36V32.0001C36 31.4335 36.192 30.9588 36.576 30.5761C36.96 30.1935 37.4347 30.0015 38 30.0001C38.5653 29.9988 39.0407 30.1908 39.426 30.5761C39.8113 30.9615 40.0027 31.4361 40 32.0001V36.0001C40 37.1001 39.6087 38.0421 38.826 38.8261C38.0433 39.6101 37.1013 40.0015 36 40.0001H12ZM22 15.7001L18.25 19.4501C17.85 19.8501 17.3753 20.0421 16.826 20.0261C16.2767 20.0101 15.8013 19.8015 15.4 19.4001C15.0333 19.0001 14.8413 18.5335 14.824 18.0001C14.8067 17.4668 14.9987 17.0001 15.4 16.6001L22.6 9.40013C22.8 9.20013 23.0167 9.05879 23.25 8.97613C23.4833 8.89346 23.7333 8.85146 24 8.85013C24.2667 8.8488 24.5167 8.89079 24.75 8.97613C24.9833 9.06146 25.2 9.20279 25.4 9.40013L32.6 16.6001C33 17.0001 33.192 17.4668 33.176 18.0001C33.16 18.5335 32.968 19.0001 32.6 19.4001C32.2 19.8001 31.7253 20.0088 31.176 20.0261C30.6267 20.0435 30.1513 19.8515 29.75 19.4501L26 15.7001V30.0001C26 30.5668 25.808 31.0421 25.424 31.4261C25.04 31.8101 24.5653 32.0015 24 32.0001C23.4347 31.9988 22.96 31.8068 22.576 31.4241C22.192 31.0415 22 30.5668 22 30.0001V15.7001Z" fill="#21232A"/>
</svg>
